<?xml version="1.0" encoding="iso-8859-1"?>
<!-- Generator: Adobe Illustrator 19.0.0, SVG Export Plug-In . SVG Version: 6.00 Build 0)  -->
<svg xmlns="http://www.w3.org/2000/svg" xmlns:xlink="http://www.w3.org/1999/xlink" version="1.1" id="Capa_1" x="0px" y="0px" viewBox="0 0 512.003 512.003" style="enable-background:new 0 0 512.003 512.003;" xml:space="preserve" width="512px" height="512px">
<g>
	<g>
		<path d="M140.88,51.211c-4.71,0-8.533,3.823-8.533,8.533v25.6c0,4.71,3.823,8.533,8.533,8.533c4.719,0,8.533-3.823,8.533-8.533    v-25.6C149.413,55.034,145.59,51.211,140.88,51.211z" fill="#da8661"/>
	</g>
</g>
<g>
	<g>
		<path d="M140.538,76.811c-4.71,0-8.533,3.823-8.533,8.533c0,22.698-15.454,44.603-33.339,69.964    c-6.306,8.926-12.825,18.167-18.978,27.946c-28.057,45.405-10.223,106.733-9.446,109.327c1.109,3.703,4.497,6.093,8.175,6.093    c0.811,0,1.63-0.119,2.449-0.358c4.514-1.348,7.083-6.101,5.734-10.615c-0.171-0.555-16.461-56.507,7.577-95.41    c5.879-9.344,12.262-18.398,18.44-27.144c18.747-26.581,36.454-51.694,36.454-79.802    C149.072,80.633,145.249,76.811,140.538,76.811z" fill="#da8661"/>
	</g>
</g>
<g>
	<g>
		<path d="M201.969,183.22c-6.135-9.779-12.672-19.072-18.995-28.049c-17.826-25.309-33.211-47.163-33.211-69.819    c0-4.71-3.823-8.533-8.533-8.533s-8.533,3.823-8.533,8.533c0,28.057,17.638,53.111,36.317,79.64    c6.187,8.789,12.595,17.886,18.457,27.238c23.987,38.817,7.782,94.923,7.612,95.478c-1.34,4.514,1.229,9.267,5.743,10.607    c0.811,0.239,1.63,0.358,2.44,0.358c3.678,0,7.065-2.398,8.183-6.084C212.226,290.004,230.06,228.667,201.969,183.22z" fill="#da8661"/>
	</g>
</g>
<g>
	<g>
		<path d="M216.603,31.38C195.356,10.124,166.3-1.123,136.545,0.089c-28.578,1.118-55.022,13.295-74.444,34.295    c-19.422,21-29.508,48.306-28.39,76.884L43.78,375.779c1.929,52.479,44.543,93.558,97.039,93.558c0.017,0,0.043,0,0.068,0    c52.479-0.017,95.085-41.104,97.014-93.541l9.975-264.52c0.06-1.382,0.085-2.773,0.085-4.164    C247.963,78.5,236.827,51.612,216.603,31.38z M230.828,110.628l-9.984,264.529c-1.579,43.229-36.71,77.097-79.965,77.114    c-0.026,0-0.043,0-0.06,0c-43.272,0-78.394-33.868-79.982-77.123L50.769,110.611c-0.939-24.029,7.543-46.992,23.867-64.639    c16.324-17.647,38.553-27.886,62.591-28.825c1.212-0.051,2.432-0.068,3.652-0.068c49.638,0,90.025,40.396,90.017,90.042    C230.896,108.281,230.879,109.45,230.828,110.628z" fill="#da8661"/>
	</g>
</g>
<g>
	<g>
		<path d="M371.284,93.877c-4.719,0-8.533,3.823-8.533,8.533v25.6c0,4.71,3.814,8.533,8.533,8.533c4.719,0,8.533-3.823,8.533-8.533    v-25.6C379.818,97.7,376.003,93.877,371.284,93.877z" fill="#da8661"/>
	</g>
</g>
<g>
	<g>
		<path d="M370.934,119.477c-4.719,0-8.533,3.823-8.533,8.533c0,22.698-15.445,44.594-33.339,69.955    c-6.306,8.934-12.817,18.176-18.978,27.955c-28.057,45.405-10.223,106.733-9.446,109.327c1.101,3.703,4.497,6.093,8.175,6.093    c0.811,0,1.63-0.119,2.44-0.358c4.514-1.348,7.083-6.101,5.734-10.615c-0.162-0.555-16.452-56.515,7.586-95.41    c5.871-9.344,12.262-18.398,18.44-27.153c18.747-26.581,36.454-51.685,36.454-79.794    C379.468,123.299,375.653,119.477,370.934,119.477z" fill="#da8661"/>
	</g>
</g>
<g>
	<g>
		<path d="M432.356,225.885c-6.135-9.779-12.672-19.055-18.986-28.032c-17.826-25.309-33.22-47.172-33.22-69.836    c0-4.71-3.814-8.533-8.533-8.533s-8.533,3.823-8.533,8.533c0,28.066,17.647,53.128,36.326,79.657    c6.187,8.789,12.586,17.877,18.449,27.221c23.995,38.817,7.782,94.923,7.612,95.478c-1.331,4.514,1.246,9.267,5.751,10.607    c0.819,0.239,1.63,0.358,2.44,0.358c3.678,0,7.065-2.398,8.166-6.084C442.605,332.67,460.439,271.333,432.356,225.885z" fill="#da8661"/>
	</g>
</g>
<g>
	<g>
		<path d="M371.293,42.669c-1.451,0-2.91,0.026-4.335,0.085c-28.586,1.118-55.022,13.295-74.452,34.295    c-19.43,21-29.508,48.306-28.398,76.884l10.069,264.52c1.929,52.471,44.543,93.549,97.039,93.549c0.026,0,0.051,0,0.085-0.009    h-0.008c52.479-0.017,95.085-41.104,97.005-93.541l9.992-264.52c0.06-1.382,0.085-2.773,0.085-4.164    C478.376,90.72,430.343,42.669,371.293,42.669z M461.233,153.294l-9.992,264.537c-1.579,43.221-36.71,77.089-79.956,77.106h-0.009    c-0.017,0-0.034,0-0.06,0c-43.263,0-78.394-33.868-79.99-77.123l-10.069-264.537c-0.93-24.029,7.543-46.984,23.876-64.639    c16.324-17.647,38.553-27.886,62.599-28.825c1.212-0.051,2.432-0.068,3.652-0.068c49.629,0,90.017,40.396,90.017,90.042    C461.301,150.947,461.275,152.116,461.233,153.294z" fill="#da8661"/>
	</g>
</g>
<g>
</g>
<g>
</g>
<g>
</g>
<g>
</g>
<g>
</g>
<g>
</g>
<g>
</g>
<g>
</g>
<g>
</g>
<g>
</g>
<g>
</g>
<g>
</g>
<g>
</g>
<g>
</g>
<g>
</g>
</svg>
