<?xml version="1.0" encoding="iso-8859-1"?>
<!-- Generator: Adobe Illustrator 19.0.0, SVG Export Plug-In . SVG Version: 6.00 Build 0)  -->
<svg xmlns="http://www.w3.org/2000/svg" xmlns:xlink="http://www.w3.org/1999/xlink" version="1.1" id="Capa_1" x="0px" y="0px" viewBox="0 0 512 512" style="enable-background:new 0 0 512 512;" xml:space="preserve" width="512px" height="512px">
<g id="SVGCleanerId_0">
	<g>
		<path d="M503.467,196.267H460.8c-4.719,0-8.533,3.823-8.533,8.533V256c0,4.719,3.814,8.533,8.533,8.533h42.667    c4.719,0,8.533-3.814,8.533-8.533v-51.2C512,200.09,508.186,196.267,503.467,196.267z M494.933,247.467h-25.6v-34.133h25.6    V247.467z" fill="#da8661"/>
	</g>
</g>
<g>
	<g>
		<path d="M443.733,0c-4.719,0-8.533,3.823-8.533,8.533V76.8c0,2.261,0.896,4.437,2.5,6.033l14.566,14.566v329.267    c0,14.114-11.486,25.6-25.6,25.6H281.6c-4.719,0-8.533,3.814-8.533,8.533v42.667c0,4.719,3.814,8.533,8.533,8.533h153.6    c42.351,0,76.8-34.449,76.8-76.8V68.267C512,30.626,481.374,0,443.733,0z M494.933,435.2c0,32.93-26.803,59.733-59.733,59.733    H290.133v-25.6h136.533c23.526,0,42.667-19.14,42.667-42.667v-332.8c0-2.261-0.896-4.437-2.5-6.042l-14.566-14.566V17.775    c24.183,4.079,42.667,25.165,42.667,50.492V435.2z" fill="#da8661"/>
	</g>
</g>
<g>
	<g>
		<path d="M273.067,443.733v51.2H256c-9.412,0-17.067-7.654-17.067-17.067v-34.133h-17.067v34.133    C221.867,496.691,237.175,512,256,512h25.6c4.719,0,8.533-3.814,8.533-8.533v-59.733H273.067z" fill="#da8661"/>
	</g>
</g>
<g>
	<g>
		<path d="M307.2,375.467h-34.133c-2.628,0-5.112,1.212-6.724,3.285c-1.621,2.065-2.193,4.762-1.553,7.313l8.533,34.133    c0.956,3.797,4.361,6.468,8.277,6.468h8.516c-7.791,10.359-20.181,17.067-34.116,17.067s-26.325-6.707-34.116-17.067h8.516    c3.917,0,7.33-2.662,8.277-6.468l8.533-34.133c0.64-2.543,0.06-5.248-1.553-7.313c-1.613-2.074-4.096-3.285-6.724-3.285H204.8    c-4.71,0-8.533,3.814-8.533,8.533v17.067c0,32.93,26.795,59.733,59.733,59.733c32.93,0,59.733-26.803,59.733-59.733V384    C315.733,379.281,311.919,375.467,307.2,375.467z M213.333,401.067v-8.533h14.677l-4.267,17.067h-9.549    C213.632,406.844,213.333,403.994,213.333,401.067z M298.667,401.067c0,2.927-0.29,5.777-0.862,8.533h-9.54l-4.267-17.067h14.669    V401.067z" fill="#da8661"/>
	</g>
</g>
<g>
	<g>
		<path d="M503.467,196.267H460.8c-4.719,0-8.533,3.823-8.533,8.533V256c0,4.719,3.814,8.533,8.533,8.533h42.667    c4.719,0,8.533-3.814,8.533-8.533v-51.2C512,200.09,508.186,196.267,503.467,196.267z M494.933,247.467h-25.6v-34.133h25.6    V247.467z" fill="#da8661"/>
	</g>
</g>
<g>
	<g>
		
			<rect x="460.783" y="445.188" transform="matrix(0.7071 -0.7071 0.7071 0.7071 -194.403 469.3182)" width="17.066" height="48.273" fill="#da8661"/>
	</g>
</g>
<g>
	<g>
		<rect x="426.667" y="460.8" width="17.067" height="42.667" fill="#da8661"/>
	</g>
</g>
<g>
	<g>
		<path d="M358.4,119.467H153.6c-61.167,0-110.933,49.766-110.933,110.933v17.067c0,61.167,49.766,110.933,110.942,110.925    c34.441-0.026,65.766-20.369,79.812-51.84l6.409-14.43c2.825-6.391,9.156-10.522,16.162-10.522c0.009,0,0.009,0,0.017,0    c0,0,0.009,0,0.017,0c6.98,0,13.312,4.13,16.145,10.547l6.409,14.43c14.046,31.454,45.372,51.797,79.821,51.823    c61.167,0,110.933-49.766,110.933-110.933V230.4C469.333,169.233,419.567,119.467,358.4,119.467z M452.267,247.467    c0,51.755-42.112,93.858-93.858,93.875c-27.725-0.026-52.932-16.393-64.23-41.694l-6.391-14.404    c-5.555-12.587-18.022-20.71-31.753-20.71c-0.026,0-0.043,0-0.051,0c-13.747,0-26.223,8.124-31.761,20.685l-6.391,14.404    c-11.298,25.318-36.514,41.685-64.23,41.711c-51.755,0-93.867-42.112-93.867-93.867V230.4c0-51.755,42.112-93.867,93.867-93.867    h204.8c51.755,0,93.867,42.112,93.867,93.867V247.467z" fill="#da8661"/>
	</g>
</g>
<g>
	<g>
		<path d="M358.4,153.6H153.6c-42.342,0-76.8,34.458-76.8,76.8v17.067c0,42.351,34.458,76.8,76.8,76.8    c21,0,40.073-12.407,48.597-31.616l6.4-14.404c5.222-11.767,14.575-21.111,26.342-26.342    c26.146-11.614,56.858,0.205,68.471,26.334l6.4,14.413c8.525,19.209,27.588,31.616,48.589,31.616c42.351,0,76.8-34.449,76.8-76.8    V230.4C435.2,188.058,400.751,153.6,358.4,153.6z M418.133,247.467c0,32.93-26.803,59.733-59.733,59.733    c-14.259,0-27.204-8.422-32.998-21.47l-6.4-14.421c-7.484-16.828-21.06-29.739-38.246-36.352    c-8.038-3.089-16.418-4.634-24.781-4.634c-9.515,0-19.012,1.997-27.972,5.973c-15.633,6.946-28.066,19.379-35.012,35.021    l-6.4,14.413c-5.786,13.047-18.731,21.47-32.99,21.47c-32.939,0-59.733-26.803-59.733-59.733V230.4    c0-32.939,26.795-59.733,59.733-59.733h204.8c32.93,0,59.733,26.795,59.733,59.733V247.467z" fill="#da8661"/>
	</g>
</g>
<g>
	<g>
		<path d="M51.2,196.267H8.533C3.823,196.267,0,200.09,0,204.8V256c0,4.719,3.823,8.533,8.533,8.533H51.2    c4.71,0,8.533-3.814,8.533-8.533v-51.2C59.733,200.09,55.91,196.267,51.2,196.267z M42.667,247.467h-25.6v-34.133h25.6V247.467z" fill="#da8661"/>
	</g>
</g>
<g>
	<g>
		<rect x="460.8" y="426.667" width="42.667" height="17.067" fill="#da8661"/>
	</g>
</g>
<g>
	<g>
		<rect x="384" y="460.8" width="17.067" height="42.667" fill="#da8661"/>
	</g>
</g>
<g>
	<g>
		<rect x="460.8" y="384" width="42.667" height="17.067" fill="#da8661"/>
	</g>
</g>
<g>
</g>
<g>
</g>
<g>
</g>
<g>
</g>
<g>
</g>
<g>
</g>
<g>
</g>
<g>
</g>
<g>
</g>
<g>
</g>
<g>
</g>
<g>
</g>
<g>
</g>
<g>
</g>
<g>
</g>
</svg>
